<?xml version="1.0" encoding="UTF-8" standalone="no"?>
<!-- Created with Inkscape (http://www.inkscape.org/) -->

<svg
   xmlns:dc="http://purl.org/dc/elements/1.1/"
   xmlns:cc="http://creativecommons.org/ns#"
   xmlns:rdf="http://www.w3.org/1999/02/22-rdf-syntax-ns#"
   xmlns:svg="http://www.w3.org/2000/svg"
   xmlns="http://www.w3.org/2000/svg"
   xmlns:xlink="http://www.w3.org/1999/xlink"
   xmlns:sodipodi="http://sodipodi.sourceforge.net/DTD/sodipodi-0.dtd"
   xmlns:inkscape="http://www.inkscape.org/namespaces/inkscape"
   width="20cm"
   height="20cm"
   viewBox="0 0 200 200"
   version="1.1"
   id="svg5069"
   inkscape:version="0.92.4 (5da689c313, 2019-01-14)"
   sodipodi:docname="logo.svg"
   inkscape:export-filename="D:\cyanide\res\logo.png"
   inkscape:export-xdpi="95.073601"
   inkscape:export-ydpi="95.073601">
  <defs
     id="defs5063">
    <linearGradient
       gradientTransform="matrix(0.58061557,0,0,0.58061557,818.16865,-1017.5096)"
       inkscape:collect="always"
       xlink:href="#linearGradient5059"
       id="linearGradient5061"
       x1="-1312.6884"
       y1="1999.4304"
       x2="-1073.7921"
       y2="2263.9919"
       gradientUnits="userSpaceOnUse" />
    <linearGradient
       inkscape:collect="always"
       id="linearGradient5059">
      <stop
         style="stop-color:#000000;stop-opacity:0.49171272"
         offset="0"
         id="stop5055" />
      <stop
         style="stop-color:#000000;stop-opacity:0"
         offset="1"
         id="stop5057" />
    </linearGradient>
    <radialGradient
       inkscape:collect="always"
       xlink:href="#linearGradient4754"
       id="radialGradient5052"
       gradientUnits="userSpaceOnUse"
       gradientTransform="matrix(2.8677933,2.892778,-5.0632743,5.0195431,3841.9015,-1482.0271)"
       cx="-377.99329"
       cy="538.51471"
       fx="-377.99329"
       fy="538.51471"
       r="48.069458" />
    <linearGradient
       id="linearGradient4754"
       inkscape:collect="always">
      <stop
         id="stop4750"
         offset="0"
         style="stop-color:#80ffe6;stop-opacity:1" />
      <stop
         id="stop4752"
         offset="1"
         style="stop-color:#2ad4ff;stop-opacity:1" />
    </linearGradient>
  </defs>
  <sodipodi:namedview
     id="base"
     pagecolor="#ffffff"
     bordercolor="#666666"
     borderopacity="1.0"
     inkscape:pageopacity="0.0"
     inkscape:pageshadow="2"
     inkscape:zoom="1.4"
     inkscape:cx="554.00201"
     inkscape:cy="523.10814"
     inkscape:document-units="mm"
     inkscape:current-layer="layer1"
     showgrid="false"
     showborder="false"
     units="cm"
     inkscape:window-width="1366"
     inkscape:window-height="745"
     inkscape:window-x="-8"
     inkscape:window-y="-8"
     inkscape:window-maximized="1" />
  <metadata
     id="metadata5066">
    <rdf:RDF>
      <cc:Work
         rdf:about="">
        <dc:format>image/svg+xml</dc:format>
        <dc:type
           rdf:resource="http://purl.org/dc/dcmitype/StillImage" />
        <dc:title />
      </cc:Work>
    </rdf:RDF>
  </metadata>
  <g
     inkscape:label="Layer 1"
     inkscape:groupmode="layer"
     id="layer1"
     transform="translate(0,-97)">
    <rect
       ry="10.000006"
       rx="10.000006"
       y="97"
       x="0"
       height="200"
       width="200"
       id="rect5044"
       style="fill:url(#radialGradient5052);fill-opacity:1;stroke:none;stroke-width:2.19445252;stroke-miterlimit:4;stroke-dasharray:none;stroke-opacity:1"
       inkscape:export-filename="C:\Users\javad.hamidi\Desktop\logo.png"
       inkscape:export-xdpi="95.073601"
       inkscape:export-ydpi="95.073601" />
    <path
       inkscape:connector-curvature="0"
       style="fill:url(#linearGradient5061);fill-opacity:1;stroke:none;stroke-width:2.19445252;stroke-miterlimit:4;stroke-dasharray:none;stroke-opacity:1"
       d="m 157.19572,143.2305 -5.51358,5.95014 c -4.90684,5.2951 -8.74326,9.14215 -12.82458,12.85861 l -1.31091,1.19298 -2.82481,-2.47666 c -3.73316,-3.27473 -6.10152,-4.83879 -10.33885,-6.8245 -10.96399,-5.13788 -25.858701,-5.66299 -37.399774,-1.31888 -15.685783,5.90411 -27.036632,19.62064 -29.977703,36.22613 -1.242282,7.01401 -0.475275,16.66015 1.873426,23.55458 5.392518,15.8295 19.702264,28.27667 36.108124,31.40767 13.748697,2.62395 25.753027,-0.36025 38.521347,-9.57678 l 4.92845,-3.55735 1.65451,1.58421 c 3.68552,3.53299 16.34347,17.14007 16.88326,18.14876 0.54881,1.02553 0.49427,1.16901 -1.05126,2.76137 -5.10449,5.25885 -18.16498,12.90666 -27.13583,15.8898 -12.82104,4.26351 -28.45713,5.30369 -41.058164,2.73181 -7.766384,-1.58507 -16.648798,-5.07083 -23.597665,-9.26035 -2.144154,-1.29284 -4.009899,-2.3508 -4.146,-2.3508 -0.136055,0 10.948545,11.19767 24.633088,24.88364 l 11.943444,11.94463 H 172.7635 c 12.1572,0 27.23591,-4.49535 27.23591,-16.65265 v -94.31828 z"
       id="rect4694"
       inkscape:export-filename="C:\Users\javad.hamidi\Desktop\logo.png"
       inkscape:export-xdpi="95.073601"
       inkscape:export-ydpi="95.073601"
       sodipodi:nodetypes="cccccccsccccccccccsccsscc" />
    <path
       sodipodi:nodetypes="cccccccccscccccsccc"
       inkscape:export-ydpi="95.073601"
       inkscape:export-xdpi="95.073601"
       inkscape:connector-curvature="0"
       id="path5046"
       d="m 87.231861,271.50206 c -27.952104,-6.12531 -49.971,-27.23734 -57.712416,-55.33475 -2.847388,-10.33512 -2.470336,-29.99678 0.781578,-40.61665 6.428034,-21.00006 21.035429,-38.05704 40.697879,-47.5218 11.495283,-5.53381 18.903654,-7.13068 33.002788,-7.1138 14.08664,0.0192 21.47495,1.62598 33.20434,7.23045 7.55833,3.61326 19.86783,12.50813 19.92867,14.40277 0.0263,0.57732 -4.34804,5.41676 -9.704,10.75025 l -9.73766,9.69683 -3.87246,-3.40112 c -8.22999,-7.22839 -20.63571,-10.96467 -33.43138,-10.07361 -23.84361,1.66137 -42.280229,19.88717 -44.094732,43.59288 -3.141977,41.05843 42.852908,66.71922 75.936262,42.3647 l 6.08401,-4.47889 9.42741,9.46636 c 5.18509,5.20664 9.42711,10.03978 9.42711,10.74003 0,2.03052 -12.16492,10.51538 -21.1635,14.7574 -14.37641,6.77722 -33.30956,8.92754 -48.773512,5.53851 z"
       style="fill:#ffffff;fill-opacity:1;stroke:none;stroke-width:1.03236616;stroke-opacity:1"
       inkscape:export-filename="C:\Users\javad.hamidi\Desktop\logo.png" />
  </g>
</svg>
