<svg id="Layer_1" data-name="Layer 1" xmlns="http://www.w3.org/2000/svg" xmlns:xlink="http://www.w3.org/1999/xlink" viewBox="0 0 1000 1000"><defs><style>.cls-1{fill:url(#linear-gradient);}.cls-2{fill:url(#linear-gradient-2);}.cls-3{fill:#fff;}</style><linearGradient id="linear-gradient" x1="36.41" y1="36.41" x2="961.92" y2="961.92" gradientUnits="userSpaceOnUse"><stop offset="0" stop-color="#70ffeb"/><stop offset="1" stop-color="#2ad4ff"/></linearGradient><linearGradient id="linear-gradient-2" x1="328.61" y1="328.61" x2="1067.99" y2="1067.99" gradientUnits="userSpaceOnUse"><stop offset="0" stop-opacity="0.5"/><stop offset="1" stop-color="#2ad4ff" stop-opacity="0"/></linearGradient></defs><title>logo</title><rect class="cls-1" width="1000" height="1000" rx="100"/><path class="cls-2" d="M1000,434.32V900a100,100,0,0,1-100,100H434.32L217.16,782.84a400,400,0,0,0,565.68,0L676.78,676.78A249.22,249.22,0,0,1,500,750c-138.07,0-250-111.93-250-250S361.93,250,500,250a249.22,249.22,0,0,1,176.78,73.22L782.84,217.16Z" transform="translate(0 0)"/><path class="cls-3" d="M676.78,676.78,782.84,782.84A400,400,0,0,1,100,500c0-220.91,179.09-400,400-400A398.71,398.71,0,0,1,782.84,217.16L676.78,323.22A249.22,249.22,0,0,0,500,250c-138.07,0-250,111.93-250,250S361.93,750,500,750A249.22,249.22,0,0,0,676.78,676.78Z" transform="translate(0 0)"/></svg>