<?xml version="1.0" encoding="UTF-8" standalone="no"?>
<!-- Created with Inkscape (http://www.inkscape.org/) -->

<svg
   xmlns:dc="http://purl.org/dc/elements/1.1/"
   xmlns:cc="http://creativecommons.org/ns#"
   xmlns:rdf="http://www.w3.org/1999/02/22-rdf-syntax-ns#"
   xmlns:svg="http://www.w3.org/2000/svg"
   xmlns="http://www.w3.org/2000/svg"
   xmlns:xlink="http://www.w3.org/1999/xlink"
   xmlns:sodipodi="http://sodipodi.sourceforge.net/DTD/sodipodi-0.dtd"
   xmlns:inkscape="http://www.inkscape.org/namespaces/inkscape"
   width="20cm"
   height="20cm"
   viewBox="0 0 200 200"
   version="1.1"
   id="svg5069"
   inkscape:version="0.92.4 (5da689c313, 2019-01-14)"
   sodipodi:docname="logo.svg">
  <defs
     id="defs5063">
    <linearGradient
       gradientTransform="matrix(0.33042095,0,0,0.33042095,414.73593,-577.10217)"
       inkscape:collect="always"
       xlink:href="#linearGradient5059"
       id="linearGradient5061"
       x1="-1312.6884"
       y1="1999.4304"
       x2="-1073.7921"
       y2="2263.9919"
       gradientUnits="userSpaceOnUse" />
    <linearGradient
       inkscape:collect="always"
       id="linearGradient5059">
      <stop
         style="stop-color:#000000;stop-opacity:0.49171272"
         offset="0"
         id="stop5055" />
      <stop
         style="stop-color:#000000;stop-opacity:0"
         offset="1"
         id="stop5057" />
    </linearGradient>
    <radialGradient
       inkscape:collect="always"
       xlink:href="#linearGradient4754"
       id="radialGradient5052"
       gradientUnits="userSpaceOnUse"
       gradientTransform="matrix(1.6320248,1.6462433,-2.8814452,2.8565583,2132.493,-841.4532)"
       cx="-377.99329"
       cy="538.51471"
       fx="-377.99329"
       fy="538.51471"
       r="48.069458" />
    <linearGradient
       id="linearGradient4754"
       inkscape:collect="always">
      <stop
         id="stop4750"
         offset="0"
         style="stop-color:#80ffe6;stop-opacity:1" />
      <stop
         id="stop4752"
         offset="1"
         style="stop-color:#2ad4ff;stop-opacity:1" />
    </linearGradient>
  </defs>
  <sodipodi:namedview
     id="base"
     pagecolor="#ffffff"
     bordercolor="#666666"
     borderopacity="1.0"
     inkscape:pageopacity="0.0"
     inkscape:pageshadow="2"
     inkscape:zoom="0.061871843"
     inkscape:cx="-1436.8492"
     inkscape:cy="2364.1715"
     inkscape:document-units="mm"
     inkscape:current-layer="layer1"
     showgrid="false"
     showborder="false"
     units="cm"
     inkscape:window-width="1366"
     inkscape:window-height="745"
     inkscape:window-x="-8"
     inkscape:window-y="-8"
     inkscape:window-maximized="1" />
  <metadata
     id="metadata5066">
    <rdf:RDF>
      <cc:Work
         rdf:about="">
        <dc:format>image/svg+xml</dc:format>
        <dc:type
           rdf:resource="http://purl.org/dc/dcmitype/StillImage" />
        <dc:title></dc:title>
      </cc:Work>
    </rdf:RDF>
  </metadata>
  <g
     inkscape:label="Layer 1"
     inkscape:groupmode="layer"
     id="layer1"
     transform="translate(0,-97)">
    <rect
       ry="10.000006"
       rx="10.000006"
       y="57.150757"
       x="-53.884922"
       height="113.81747"
       width="113.81747"
       id="rect5044"
       style="fill:url(#radialGradient5052);fill-opacity:1;stroke:none;stroke-width:1.24883509;stroke-miterlimit:4;stroke-dasharray:none;stroke-opacity:1" />
    <path
       inkscape:connector-curvature="0"
       style="fill:url(#linearGradient5061);fill-opacity:1;stroke:none;stroke-width:1.24883509;stroke-miterlimit:4;stroke-dasharray:none;stroke-opacity:1"
       d="m 38.584597,83.460296 -3.137711,3.386154 c -2.79242,3.013373 -4.975671,5.202677 -7.298305,7.317668 L 27.402565,94.843034 25.795002,93.43359 C 23.670496,91.569984 22.322703,90.679895 19.91129,89.549856 13.671823,86.625961 5.1954289,86.327128 -1.3724447,88.799304 c -8.9265863,3.359953 -15.3862103,11.16585 -17.0599363,20.615826 -0.706966,3.99159 -0.270473,9.48109 1.066143,13.40462 3.068813,9.00836 11.2123035,16.09189 20.5486821,17.87371 7.8242019,1.49325 14.6557169,-0.20502 21.9220019,-5.45003 l 2.804721,-2.02444 0.941559,0.90154 c 2.097382,2.01059 9.300862,9.7542 9.608051,10.32824 0.312321,0.58362 0.281287,0.66527 -0.598255,1.57145 -2.904903,2.99276 -10.337457,7.34502 -15.442658,9.04269 -7.296294,2.42632 -16.1945938,3.01827 -23.36567976,1.55464 C -5.367568,155.7155 -10.42244,153.73181 -14.376951,151.3476 c -1.220212,-0.73573 -2.281984,-1.33781 -2.359437,-1.33781 -0.07743,0 6.230675,6.37246 14.0183735,14.16097 l 6.79686,6.79753 H 47.44402 c 6.918547,0 12.488226,-5.56967 12.488226,-12.48823 v -53.67533 z"
       id="rect4694" />
    <path
       sodipodi:nodetypes="cccccccccscccccsccc"
       inkscape:export-ydpi="95.073631"
       inkscape:export-xdpi="95.073631"
       inkscape:connector-curvature="0"
       id="path5046"
       d="m -1.2309517,156.45802 c -15.9071863,-3.48584 -28.4378603,-15.50043 -32.8434013,-31.49031 -1.620413,-5.88158 -1.405838,-17.07078 0.444785,-23.11442 3.658113,-11.950869 11.970996,-21.657778 23.160646,-27.044053 6.5418228,-3.149225 10.75782764,-4.057978 18.7814683,-4.048374 8.0165347,0.01124 12.2211257,0.925324 18.8961747,4.114749 4.30135,2.05627 11.306528,7.118236 11.341146,8.19643 0.01499,0.328556 -2.474405,3.082612 -5.522412,6.117843 l -5.54158,5.518354 -2.20377,-1.935546 C 20.598524,88.659118 13.538584,86.532839 6.2567265,87.039941 -7.3123664,87.985396 -17.804417,98.357466 -18.837028,111.84809 c -1.788058,23.36583 24.3870512,37.96906 43.214365,24.10922 l 3.462333,-2.54889 5.36502,5.38719 c 2.950773,2.96303 5.364846,5.71351 5.364846,6.11202 0,1.15554 -6.922893,5.98416 -12.043878,8.39824 -8.181431,3.85683 -18.9560437,5.08055 -27.7563849,3.1519 z"
       style="fill:#ffffff;fill-opacity:1;stroke:none;stroke-width:0.58750647;stroke-opacity:1" />
  </g>
</svg>
